<svg width="295" height="276" viewBox="0 0 295 276" fill="none" xmlns="http://www.w3.org/2000/svg">
<path fill-rule="evenodd" clip-rule="evenodd" d="M12.7369 92.7786L173.967 180.485L79.0755 239.97C72.3327 242.792 67.8357 249.41 67.8357 256.85C67.8357 270.625 82.427 279.279 94.4324 273.148C96.5873 272.059 97.0949 271.447 98.7536 270.08L202.852 196.154L278.61 237.246C285.667 240.379 294.304 235.465 294.364 226.958V125.29C294.324 116.421 284.933 111.515 277.796 115.4L204.315 161.459C149.333 125.026 94.3473 88.5963 39.3648 52.1662C35.2278 48.9281 30.0219 47 24.3623 47C10.908 47 0 57.908 0 71.3623C0 80.6088 5.1492 88.6502 12.7369 92.7758V92.7786ZM254.35 194.904L228.85 177.885L271.901 147.117V206.291L254.35 194.904Z" fill="#3B6DF8"/>
<path d="M235.904 1.66422C235.842 1.6869 235.782 1.70959 235.72 1.73227C230.622 3.62069 225.257 4.5649 219.892 4.56207C225.997 10.1224 234.203 10.905 234.203 10.905C222.869 13.0968 216.688 6.25767 210.093 3.4931C207.643 2.46666 205.468 2.0385 203.895 1.66422C180.561 -3.91598 174.947 29.1257 174.947 51.9427C174.947 51.9427 173.748 43.975 169.412 38.8315C156.395 42.5488 146 47.233 146 51.2565C146 66.3015 179.084 78.4997 219.898 78.4997C244.674 78.4997 266.587 73.9998 279.993 67.1011H217.037L289.9 59.9812C292.412 57.2393 293.793 54.3103 293.793 51.2565C293.793 47.0912 283.503 42.4439 270.644 38.7748C266.244 44.1707 264.846 51.9399 264.846 51.9399C264.846 29.1229 258.375 -6.72876 235.898 1.66138L235.904 1.66422Z" fill="#262626"/>
</svg>
