<svg width="73" height="73" viewBox="0 0 73 73" fill="none" xmlns="http://www.w3.org/2000/svg">
<path d="M36.4325 -7.62939e-05C16.314 -7.62939e-05 0 16.589 0 37.0544C0 53.4261 10.439 67.3162 24.9147 72.2158C26.7355 72.5589 27.4039 71.4119 27.4039 70.4333C27.4039 69.5495 27.3702 66.6304 27.3545 63.5343C17.2189 65.7759 15.0802 59.1625 15.0802 59.1625C13.4229 54.8792 11.0351 53.7404 11.0351 53.7404C7.72954 51.4405 11.2842 51.4879 11.2842 51.4879C14.9427 51.7484 16.869 55.3063 16.869 55.3063C20.1185 60.9711 25.3919 59.3336 27.4709 58.3869C27.7979 55.9925 28.7421 54.3564 29.784 53.4315C21.6919 52.4949 13.1852 49.3175 13.1852 35.119C13.1852 31.0734 14.6085 27.7679 16.939 25.1729C16.5608 24.239 15.3137 20.4708 17.2919 15.3667C17.2919 15.3667 20.3513 14.3708 27.3135 19.165C30.2196 18.344 33.3362 17.9322 36.4325 17.9181C39.5286 17.9322 42.6477 18.344 45.5594 19.165C52.5131 14.3708 55.5682 15.3667 55.5682 15.3667C57.551 20.4708 56.3036 24.239 55.9254 25.1729C58.2614 27.7679 59.6749 31.0734 59.6749 35.119C59.6749 49.3513 51.1517 52.4848 43.0392 53.4024C44.346 54.5521 45.5106 56.8073 45.5106 60.2643C45.5106 65.222 45.4682 69.2123 45.4682 70.4333C45.4682 71.4192 46.1238 72.5749 47.9707 72.2108C62.4384 67.3057 72.8642 53.4206 72.8642 37.0544C72.8642 16.589 56.5528 -7.62939e-05 36.4325 -7.62939e-05Z" fill="#0C0C0C"/>
<path d="M13.7988 53.2016C13.7186 53.3864 13.4338 53.4411 13.1744 53.3143C12.9102 53.1938 12.7617 52.9424 12.8474 52.7581C12.9259 52.5683 13.2112 52.5163 13.4749 52.6418C13.7397 52.7636 13.8905 53.0168 13.7988 53.2016Z" fill="#0C0C0C"/>
<path d="M15.2747 54.8751C15.1009 55.0389 14.7613 54.9627 14.5309 54.704C14.2925 54.4458 14.2479 54.1 14.424 53.9339C14.6032 53.7701 14.9326 53.8467 15.1715 54.105C15.4099 54.3664 15.4563 54.7095 15.2747 54.8751Z" fill="#0C0C0C"/>
<path d="M16.711 57.0108C16.4878 57.1687 16.1228 57.0209 15.8972 56.6915C15.674 56.3616 15.674 55.9665 15.902 55.8082C16.1283 55.6498 16.4878 55.7922 16.7165 56.1193C16.9391 56.4537 16.9391 56.8498 16.711 57.0108Z" fill="#0C0C0C"/>
<path d="M18.679 59.0717C18.4793 59.2957 18.054 59.2355 17.7427 58.9298C17.4242 58.631 17.3355 58.2071 17.5358 57.9831C17.7379 57.7586 18.1656 57.822 18.4793 58.125C18.7955 58.4234 18.892 58.8504 18.679 59.0717Z" fill="#0C0C0C"/>
<path d="M21.3935 60.2689C21.3055 60.5591 20.8958 60.6909 20.4832 60.5678C20.0711 60.4405 19.8015 60.1006 19.8847 59.8072C19.9704 59.5152 20.3818 59.3779 20.7975 59.5097C21.2089 59.6361 21.4792 59.9737 21.3935 60.2689Z" fill="#0C0C0C"/>
<path d="M24.3753 60.4902C24.3855 60.7959 24.0356 61.0496 23.6025 61.0541C23.1669 61.0646 22.8145 60.8173 22.8097 60.5167C22.8097 60.2082 23.1518 59.9573 23.5874 59.95C24.0205 59.9413 24.3753 60.1868 24.3753 60.4902Z" fill="#0C0C0C"/>
<path d="M27.15 60.0102C27.2019 60.3082 26.9008 60.6148 26.4707 60.6955C26.0477 60.7749 25.6562 60.5906 25.6025 60.2949C25.55 59.9892 25.8565 59.6831 26.2788 59.6037C26.7096 59.528 27.0951 59.7068 27.15 60.0102Z" fill="#0C0C0C"/>
</svg>
