<svg width="1755" height="241" viewBox="0 0 1755 241" fill="none" xmlns="http://www.w3.org/2000/svg">
<path d="M668.983 190.532L347.129 190.509C342.941 190.509 338.997 189.712 335.305 188.119C331.616 186.525 328.381 184.336 325.602 181.558C322.823 178.779 320.634 175.544 319.041 171.855C317.447 168.166 316.651 164.224 316.651 160.031V122.58C316.651 118.389 317.447 114.448 319.041 110.759C320.634 107.07 322.823 103.835 325.602 101.056C328.381 98.2771 331.616 96.0881 335.305 94.4946C338.994 92.901 342.935 92.1043 347.129 92.1043L668.983 92.1269C673.174 92.1269 677.118 92.9265 680.807 94.5172C684.496 96.1108 687.731 98.2998 690.51 101.079C693.288 103.857 695.474 107.093 697.071 110.781C698.664 114.47 699.461 118.415 699.461 122.603V160.053C699.461 164.244 698.664 168.185 697.071 171.877C695.477 175.566 693.288 178.801 690.51 181.58C687.731 184.359 684.493 186.548 680.807 188.141C677.118 189.735 673.174 190.535 668.983 190.532ZM652.409 151.85V130.939C652.409 128.753 652.021 126.68 651.247 124.721C650.473 122.764 649.378 121.029 647.966 119.526C646.554 118.023 644.89 116.838 642.979 115.973C641.065 115.108 638.921 114.675 636.556 114.675L379.853 114.655C377.579 114.655 375.433 115.066 373.431 115.885C371.429 116.702 369.674 117.822 368.168 119.234C366.665 120.646 365.503 122.333 364.683 124.292C363.864 126.249 363.453 128.418 363.453 130.783V151.969C363.453 154.153 363.841 156.231 364.615 158.188C365.389 160.147 366.507 161.834 367.964 163.246C369.421 164.658 371.131 165.798 373.091 166.663C375.05 167.528 377.213 167.961 379.584 167.961L636.151 167.981C638.612 167.981 640.824 167.548 642.78 166.683C644.737 165.818 646.446 164.655 647.907 163.198C649.364 161.74 650.481 160.031 651.255 158.071C652.03 156.112 652.418 154.039 652.418 151.853L652.409 151.85ZM863.782 92.1241V190.532H841.232V126.43L794.625 190.532H793.531L747.06 126.567V190.532H724.51V92.1241H751.024L794.214 151.442L837.54 92.1241H863.782ZM1022.6 190.532H996.629L984.737 172.081H910.25L898.633 190.532H872.663L933.075 92.1241H962.051L1022.6 190.532ZM946.198 114.677L923.508 149.531H971.893L949.067 114.677H946.198ZM1134.67 164.153V92.1241H1157.22V190.532H1128.93L1052.67 118.639V190.532H1030.12V92.1241H1058.54L1134.67 164.153ZM1268.62 190.532H1200C1195.82 190.532 1191.87 189.735 1188.18 188.141C1184.49 186.548 1181.26 184.359 1178.48 181.58C1175.7 178.801 1173.51 175.566 1171.92 171.877C1170.32 168.188 1169.52 164.247 1169.52 160.053V122.603C1169.52 118.412 1170.32 114.47 1171.92 110.781C1173.51 107.093 1175.7 103.857 1178.48 101.079C1181.26 98.2998 1184.49 96.1108 1188.18 94.5172C1191.87 92.9237 1195.81 92.1269 1200 92.1269H1268.62C1272.81 92.1269 1276.75 92.9265 1280.44 94.5172C1284.13 96.1108 1287.37 98.2998 1290.14 101.079C1292.92 103.857 1295.11 107.093 1296.7 110.781C1298.3 114.47 1299.1 118.415 1299.1 122.603V160.053C1299.1 164.244 1298.3 168.188 1296.7 171.877C1295.11 175.566 1292.92 178.801 1290.14 181.58C1287.36 184.359 1284.13 186.545 1280.44 188.141C1276.75 189.735 1272.81 190.532 1268.62 190.532ZM1276.54 151.853V130.942C1276.54 128.755 1276.16 126.68 1275.38 124.723C1274.61 122.764 1273.51 121.032 1272.1 119.529C1270.69 118.026 1269.02 116.841 1267.11 115.976C1265.2 115.111 1263.06 114.677 1260.69 114.677H1208.48C1206.2 114.677 1204.06 115.089 1202.06 115.908C1200.05 116.727 1198.3 117.845 1196.79 119.257C1195.29 120.669 1194.13 122.356 1193.31 124.315C1192.49 126.274 1192.08 128.441 1192.08 130.806V151.992C1192.08 154.175 1192.47 156.251 1193.24 158.21C1194.01 160.17 1195.13 161.857 1196.59 163.269C1198.05 164.681 1199.76 165.821 1201.71 166.686C1203.67 167.55 1205.84 167.984 1208.21 167.984H1260.28C1262.74 167.984 1264.95 167.55 1266.91 166.686C1268.87 165.821 1270.58 164.658 1272.04 163.201C1273.49 161.743 1274.61 160.034 1275.38 158.074C1276.16 156.115 1276.55 154.042 1276.55 151.856L1276.54 151.853Z" fill="#3B6DF8"/>
<path fill-rule="evenodd" clip-rule="evenodd" d="M12.7369 57.9256L173.967 145.632L79.0755 205.117C72.3327 207.939 67.8357 214.557 67.8357 221.997C67.8357 235.772 82.427 244.425 94.4324 238.295C96.5873 237.206 97.0949 236.594 98.7536 235.227L202.852 161.301L278.61 202.393C285.667 205.526 294.304 200.612 294.364 192.105V90.437C294.324 81.5677 284.933 76.6623 277.796 80.5469L204.315 126.606C149.333 90.1733 94.3473 53.7433 39.3648 17.3132C35.2278 14.0751 30.0219 12.147 24.3623 12.147C10.908 12.147 0 23.055 0 36.5093C0 45.7557 5.1492 53.7971 12.7369 57.9227V57.9256ZM254.35 160.051L228.85 143.032L271.901 112.264V171.438L254.35 160.051Z" fill="#3B6DF8"/>
<path d="M1722.03 122.707C1722.03 119.722 1720.71 117.164 1718.07 115.04C1715.43 112.914 1711.35 111.853 1705.83 111.853H1561.9C1559.03 111.853 1556.47 112.542 1554.23 113.92C1551.99 115.298 1550.87 117.309 1550.87 119.951C1550.87 122.248 1551.91 123.972 1553.97 125.12C1556.04 126.269 1558.8 126.844 1562.25 126.844H1715.48C1721 126.844 1726.11 127.735 1730.82 129.515C1735.53 131.296 1739.66 133.822 1743.22 137.097C1746.79 140.372 1749.57 144.365 1751.58 149.071C1753.59 153.781 1754.6 159.007 1754.6 164.752C1754.6 170.037 1753.59 175.033 1751.58 179.743C1749.57 184.452 1746.81 188.561 1743.31 192.063C1739.81 195.567 1735.73 198.324 1731.08 200.334C1726.42 202.344 1721.4 203.351 1716 203.351H1559.49C1553.52 203.351 1548.09 202.058 1543.21 199.475C1538.32 196.892 1534.1 193.529 1530.54 189.395C1526.98 185.261 1524.22 180.608 1522.27 175.438C1520.31 170.269 1519.34 165.1 1519.34 159.931H1551.9C1551.9 162.917 1553.17 165.475 1555.7 167.598C1558.22 169.725 1562.42 170.785 1568.27 170.785H1709.97C1713.07 170.785 1715.97 170.125 1718.67 168.803C1721.37 167.482 1722.72 165.5 1722.72 162.858C1722.72 160.331 1721.51 158.664 1719.1 157.861C1716.69 157.056 1713.65 156.656 1709.97 156.656H1558.62C1553.34 156.656 1548.31 155.738 1543.55 153.9C1538.78 152.063 1534.59 149.449 1530.97 146.06C1527.35 142.672 1524.51 138.594 1522.44 133.825C1520.37 129.059 1519.34 123.745 1519.34 117.887C1519.34 112.488 1520.34 107.461 1522.35 102.811C1524.36 98.1579 1527.12 94.0805 1530.62 90.5758C1534.13 87.0712 1538.23 84.3151 1542.94 82.3048C1547.65 80.2944 1552.65 79.2907 1557.94 79.2907H1714.45C1720.42 79.2907 1725.88 80.5836 1730.82 83.1668C1735.76 85.7499 1739.98 89.1099 1743.48 93.2468C1746.99 97.3838 1749.71 102.034 1751.67 107.203C1753.62 112.372 1754.6 117.541 1754.6 122.71H1722.03L1722.03 122.707Z" fill="white"/>
<path fill-rule="evenodd" clip-rule="evenodd" d="M1495.1 203.348V79.285H1462.53V125.463H1370.87V79.285H1338.3V203.348H1370.87V158.032H1462.53V203.348H1495.1Z" fill="white"/>
<path d="M429.99 1.25016C429.928 1.27284 429.868 1.29552 429.806 1.31821C424.708 3.20663 419.343 4.15084 413.978 4.148C420.083 9.70835 428.289 10.4909 428.289 10.4909C416.955 12.6828 410.774 5.84361 404.179 3.07903C401.729 2.05259 399.554 1.62444 397.98 1.25016C374.647 -4.33004 369.033 28.7116 369.033 51.5286C369.033 51.5286 367.834 43.561 363.498 38.4174C350.481 42.1347 340.086 46.8189 340.086 50.8425C340.086 65.8874 373.17 78.0856 413.984 78.0856C438.76 78.0856 460.673 73.5857 474.079 66.687H411.123L483.986 59.5672C486.498 56.8253 487.879 53.8962 487.879 50.8425C487.879 46.6772 477.589 42.0298 464.73 38.3607C460.33 43.7566 458.932 51.5258 458.932 51.5258C458.932 28.7088 452.461 -7.14282 429.984 1.24732L429.99 1.25016Z" fill="white"/>
</svg>
