<svg width="1427" height="642" viewBox="0 0 1427 642" fill="none" xmlns="http://www.w3.org/2000/svg">
<path d="M646.557 535.291V534.547C646.557 527.608 644.904 522.815 641.601 520.172C638.295 517.528 632.844 516.205 625.242 516.205H384.08V553.136H625.242C632.678 553.136 638.088 551.98 641.477 549.666C644.864 547.353 646.557 542.56 646.557 535.291ZM262.135 525.871C262.135 521.575 260.235 517.899 256.435 514.842C252.635 511.786 246.769 510.256 238.836 510.256H127.303C123.173 510.256 119.494 511.246 116.273 513.229C113.051 515.213 111.44 518.103 111.44 521.905C111.44 525.211 112.927 527.688 115.901 529.341C118.874 530.994 122.84 531.821 127.797 531.821H252.716C260.645 531.821 268.001 533.101 274.774 535.664C281.548 538.224 287.497 541.86 292.62 546.57C297.743 551.279 301.749 557.022 304.642 563.795C307.532 570.569 308.979 578.088 308.979 586.35C308.979 593.95 307.532 601.139 304.642 607.913C301.749 614.688 297.785 620.595 292.746 625.635C287.706 630.674 281.84 634.641 275.147 637.531C268.454 640.424 261.225 641.868 253.459 641.868H123.83C115.238 641.868 107.431 640.008 100.408 636.291C93.3857 632.574 87.3129 627.741 82.19 621.792C77.0672 615.843 73.1009 609.152 70.2938 601.716C67.4842 594.28 66.0806 586.844 66.0806 579.408H112.925C112.925 583.704 114.741 587.381 118.378 590.437C122.011 593.494 128.044 595.024 136.47 595.024H244.783C249.243 595.024 253.416 594.074 257.299 592.174C261.182 590.274 263.122 587.424 263.122 583.621C263.122 579.988 261.389 577.591 257.916 576.435C254.447 575.278 250.067 574.701 244.781 574.701H122.588C114.988 574.701 107.759 573.378 100.9 570.735C94.0434 568.091 88.0109 564.332 82.8074 559.458C77.6014 554.585 73.5117 548.719 70.5382 541.86C67.5648 535.003 66.0781 527.361 66.0781 518.934C66.0781 511.168 67.5245 503.939 70.4148 497.246C73.3076 490.553 77.2713 484.687 82.311 479.647C87.3507 474.608 93.2572 470.642 100.033 467.751C106.806 464.861 113.995 463.415 121.595 463.415H251.224C259.816 463.415 267.666 465.274 274.769 468.991C281.875 472.708 287.945 477.541 292.985 483.49C298.025 489.44 301.948 496.13 304.758 503.566C307.568 511.002 308.971 518.438 308.971 525.871H262.127H262.135ZM803.793 510.256L770.332 564.536H843.448L809.74 510.256H803.791H803.793ZM942.838 641.868H889.055L870.216 611.382H743.067L724.725 641.868H670.942L776.528 463.412H837.005L942.838 641.868ZM1133.19 530.828C1133.19 525.541 1131.21 520.789 1127.24 516.576C1123.27 512.363 1117.49 510.256 1109.89 510.256H1009.51C1002.24 510.256 996.168 512.652 991.295 517.443C986.421 522.235 983.982 528.348 983.982 535.785V569.74C983.982 577.176 986.419 583.248 991.295 587.958C996.168 592.668 1002.24 595.021 1009.51 595.021H1109.89C1112.86 595.021 1115.76 594.442 1118.57 593.285C1121.38 592.128 1123.85 590.558 1126 588.575C1128.15 586.592 1129.89 584.279 1131.21 581.636C1132.53 578.992 1133.19 576.183 1133.19 573.209H1180.04V578.166C1180.04 585.932 1178.63 593.615 1175.82 601.217C1173.01 608.817 1169.09 615.633 1164.05 621.666C1159.01 627.696 1152.94 632.572 1145.83 636.289C1138.73 640.005 1130.88 641.865 1122.29 641.865H992.658C985.058 641.865 977.869 640.419 971.096 637.528C964.32 634.638 958.413 630.672 953.374 625.632C948.334 620.593 944.368 614.686 941.477 607.91C938.585 601.134 937.141 593.948 937.141 586.348V518.932C937.141 511.166 938.587 503.936 941.477 497.244C944.37 490.551 948.334 484.685 953.374 479.645C958.413 474.605 964.32 470.639 971.096 467.749C977.869 464.858 985.058 463.412 992.658 463.412H1122.29C1130.88 463.412 1138.73 465.272 1145.83 468.989C1152.94 472.705 1159.01 477.538 1164.05 483.488C1169.09 489.437 1173.01 496.127 1175.82 503.563C1178.63 510.999 1180.04 518.435 1180.04 525.869V530.826H1133.19L1133.19 530.828ZM1202.34 463.412H1426.65V510.256H1249.19V529.341H1420.7V575.938H1249.19V595.024H1426.65V641.868H1202.34V463.412ZM643.831 605.93H384.08V641.868H331.287V463.412H643.831C651.597 463.412 658.826 464.858 665.519 467.749C672.212 470.642 678.078 474.605 683.118 479.645C688.157 484.685 692.124 490.551 695.014 497.244C697.907 503.936 699.351 511.166 699.351 518.932V550.41C699.351 558.01 697.904 565.199 695.014 571.972C692.124 578.748 688.157 584.654 683.118 589.694C678.078 594.734 672.212 598.7 665.519 601.59C658.826 604.483 651.597 605.927 643.831 605.927V605.93Z" fill="white"/>
<path fill-rule="evenodd" clip-rule="evenodd" d="M294.363 398.463V220.008H247.519V286.433H115.66V220.008H68.8164V398.463H115.66V333.277H247.519V398.463H294.363ZM1066.82 220.008V398.463H1113.67V346.91H1206.12L1241.56 398.463H1298.81L1261.64 345.174C1266.76 344.183 1271.76 342.077 1276.63 338.854C1281.5 335.631 1285.8 331.708 1289.52 327.081C1293.24 322.455 1296.21 317.415 1298.44 311.962C1300.67 306.509 1301.79 301.139 1301.79 295.853V269.828C1301.79 263.548 1300.34 257.392 1297.45 251.362C1294.56 245.332 1290.59 240.003 1285.56 235.376C1280.52 230.75 1274.65 227.031 1267.96 224.224C1261.27 221.414 1254.04 220.01 1246.27 220.01H1066.82L1066.82 220.008ZM1236.35 300.066H1113.67V266.854H1236.35C1242.14 266.854 1246.68 268.301 1249.99 271.191C1253.29 274.081 1254.94 277.43 1254.94 281.23V284.7C1254.94 288.666 1253.41 292.219 1250.36 295.359C1247.3 298.498 1242.63 300.068 1236.35 300.068V300.066ZM727.01 220.008V398.463H773.854V332.781H859.864L960.494 398.463H1047L909.437 309.482L1047 220.008H960.741L859.864 285.937H773.854V220.008H727.01ZM365.994 326.338V292.383C365.994 284.947 368.434 278.831 373.307 274.041C378.18 269.251 384.258 266.854 391.525 266.854H631.82C639.418 266.854 645.206 268.963 649.169 273.174C653.133 277.385 655.119 282.137 655.119 287.426H701.963V282.47C701.963 275.039 700.557 267.598 697.75 260.164C694.943 252.731 691.014 246.035 685.977 240.088C680.94 234.142 674.864 229.306 667.758 225.589C660.652 221.872 652.806 220.013 644.213 220.013H374.67C367.07 220.013 359.879 221.462 353.108 224.35C346.335 227.24 340.425 231.206 335.386 236.246C330.346 241.285 326.38 247.152 323.49 253.844C320.599 260.537 319.153 267.766 319.153 275.533V342.949C319.153 350.548 320.599 357.738 323.49 364.511C326.382 371.287 330.346 377.193 335.386 382.233C340.425 387.273 346.332 391.239 353.108 394.129C359.881 397.022 367.073 398.466 374.67 398.466H644.213C652.803 398.466 660.655 396.606 667.758 392.889C674.862 389.173 680.937 384.294 685.977 378.267C691.014 372.237 694.943 365.418 697.75 357.818C700.557 350.218 701.963 342.53 701.963 334.767V329.81H655.119C655.119 332.783 654.456 335.596 653.136 338.236C651.815 340.88 650.077 343.195 647.93 345.176C645.783 347.157 643.301 348.729 640.494 349.886C637.687 351.042 634.794 351.622 631.818 351.622H391.523C384.253 351.622 378.178 349.266 373.304 344.559C368.431 339.852 365.992 333.776 365.992 326.34L365.994 326.338Z" fill="white"/>
<path d="M429.996 1.24946C429.935 1.27214 429.872 1.29482 429.812 1.3175C424.712 3.20486 419.349 4.1498 413.985 4.14728C420.09 9.70858 428.295 10.4897 428.295 10.4897C416.963 12.682 410.779 5.84062 404.185 3.07887C401.736 2.05329 399.561 1.62492 397.989 1.24946C374.657 -4.32948 369.043 28.7107 369.043 51.5279C369.043 51.5279 367.844 43.5602 363.51 38.4172C350.492 42.1365 340.098 46.8183 340.098 50.8425C340.098 65.8885 373.183 78.0846 413.995 78.0846C438.77 78.0846 460.682 73.5841 474.09 66.6848H411.135L483.998 59.5637C486.511 56.8221 487.892 53.8916 487.892 50.84C487.892 46.6772 477.603 42.0281 464.744 38.3592C460.342 43.7567 458.946 51.5254 458.946 51.5254C458.946 28.7082 452.475 -7.14163 430.001 1.24694L429.996 1.24946Z" fill="white"/>
<path d="M671.483 194.593L349.629 194.57C345.441 194.57 341.497 193.774 337.805 192.179C334.114 190.584 330.881 188.396 328.102 185.617C325.322 182.838 323.135 179.602 321.54 175.913C319.945 172.224 319.149 168.283 319.149 164.09V126.64C319.149 122.45 319.945 118.509 321.54 114.817C323.135 111.125 325.322 107.892 328.102 105.113C330.881 102.334 334.116 100.146 337.805 98.5513C341.495 96.9588 345.436 96.16 349.629 96.16L671.483 96.1827C675.674 96.1827 679.617 96.9815 683.306 98.574C686.996 100.167 690.231 102.356 693.01 105.136C695.79 107.915 697.977 111.151 699.572 114.84C701.167 118.531 701.963 122.472 701.963 126.663V164.113C701.963 168.303 701.165 172.247 699.572 175.936C697.977 179.625 695.79 182.86 693.01 185.64C690.231 188.419 686.996 190.606 683.306 192.201C679.617 193.794 675.671 194.593 671.483 194.593ZM654.91 155.911V134.998C654.91 132.811 654.522 130.737 653.749 128.779C652.975 126.821 651.879 125.088 650.468 123.586C649.057 122.084 647.391 120.897 645.479 120.033C643.566 119.169 641.419 118.735 639.055 118.735L382.351 118.715C380.078 118.715 377.931 119.126 375.928 119.945C373.925 120.764 372.169 121.88 370.667 123.294C369.162 124.707 368.001 126.393 367.182 128.351C366.363 130.309 365.952 132.476 365.952 134.842V156.026C365.952 158.211 366.34 160.288 367.114 162.245C367.887 164.203 369.006 165.892 370.463 167.303C371.919 168.714 373.63 169.853 375.588 170.72C377.546 171.584 379.71 172.017 382.079 172.017L638.645 172.038C641.104 172.038 643.317 171.604 645.274 170.74C647.232 169.876 648.943 168.711 650.4 167.255C651.859 165.796 652.975 164.087 653.749 162.13C654.522 160.172 654.91 158.098 654.91 155.911ZM866.283 96.1852V194.593H843.73V130.49L797.123 194.593H796.029L749.558 130.629V194.593H727.006V96.1852H753.522L796.712 155.502L840.038 96.1852H866.283ZM1025.1 194.593H999.131L987.24 176.142H912.751L901.135 194.593H875.165L935.576 96.1852H964.552L1025.1 194.593H1025.1ZM948.699 118.738L926.01 153.59H974.394L951.569 118.738H948.699ZM1137.18 168.215V96.1852H1159.73V194.593H1131.44L1055.17 122.702V194.593H1032.62V96.1852H1061.05L1137.18 168.215H1137.18ZM1271.12 194.593H1202.51C1198.32 194.593 1194.37 193.796 1190.68 192.201C1186.99 190.606 1183.76 188.419 1180.98 185.64C1178.2 182.86 1176.01 179.625 1174.42 175.936C1172.82 172.247 1172.03 168.306 1172.03 164.113V126.663C1172.03 122.472 1172.82 118.531 1174.42 114.84C1176.01 111.151 1178.2 107.915 1180.98 105.136C1183.76 102.359 1186.99 100.169 1190.68 98.574C1194.37 96.9815 1198.31 96.1827 1202.51 96.1827H1271.12C1275.31 96.1827 1279.25 96.9815 1282.94 98.574C1286.63 100.169 1289.87 102.356 1292.65 105.136C1295.42 107.915 1297.61 111.151 1299.21 114.84C1300.8 118.531 1301.6 122.472 1301.6 126.663V164.113C1301.6 168.303 1300.8 172.247 1299.21 175.936C1297.61 179.625 1295.42 182.86 1292.65 185.64C1289.87 188.419 1286.63 190.606 1282.94 192.201C1279.25 193.796 1275.31 194.593 1271.12 194.593ZM1279.05 155.913V135.001C1279.05 132.814 1278.66 130.74 1277.88 128.782C1277.11 126.824 1276.01 125.09 1274.6 123.589C1273.19 122.087 1271.53 120.9 1269.61 120.036C1267.7 119.171 1265.56 118.738 1263.19 118.738H1210.98C1208.7 118.738 1206.56 119.149 1204.56 119.967C1202.55 120.786 1200.8 121.903 1199.3 123.316C1197.79 124.73 1196.63 126.416 1195.81 128.374C1194.99 130.332 1194.58 132.499 1194.58 134.865V156.049C1194.58 158.234 1194.97 160.31 1195.74 162.268C1196.52 164.226 1197.63 165.914 1199.09 167.325C1200.55 168.737 1202.26 169.878 1204.22 170.742C1206.17 171.607 1208.34 172.04 1210.71 172.04H1262.78C1265.24 172.04 1267.45 171.607 1269.41 170.742C1271.37 169.878 1273.08 168.714 1274.54 167.257C1275.99 165.801 1277.11 164.09 1277.89 162.132C1278.66 160.174 1279.05 158.1 1279.05 155.913H1279.05Z" fill="#7df7a8"/>
<path fill-rule="evenodd" clip-rule="evenodd" d="M12.7403 57.9239L173.97 145.632L79.0778 205.116C72.3347 207.935 67.8393 214.555 67.8393 221.996C67.8393 235.77 82.4292 244.425 94.4337 238.294C96.5882 237.206 97.0972 236.593 98.7553 235.225L202.853 161.301L278.609 202.392C285.667 205.524 294.305 200.613 294.363 192.106V90.4374C294.326 81.5701 284.934 76.664 277.798 80.5496L204.317 126.61C149.334 90.1779 94.3506 53.746 39.365 17.3166C35.23 14.0786 30.0214 12.1509 24.3619 12.1509C10.9059 12.1509 0 23.0593 0 36.5127C0 45.7581 5.15056 53.7989 12.7378 57.9264L12.7403 57.9239ZM254.353 160.051L228.855 143.032L271.906 112.264V171.435L254.356 160.051H254.353Z" fill="#7df7a8"/>
</svg>
